<svg version="1.2" baseProfile="tiny-ps" xmlns="http://www.w3.org/2000/svg" viewBox="0 0 22 22" width="22" height="22">
	<title>Application Properties</title>
	<style>
		tspan { white-space:pre }
		.shp0 { fill: #ffffff } 
	</style>
	<g id="Application Properties">
		<g id="Content">
			<g id="Features">
				<path id="Add Application copy" class="shp0" d="M9.67 1.66L9.67 8.84C9.67 9.53 9.11 10.08 8.43 10.08L1.24 10.08C0.56 10.08 0 9.53 0 8.84L0 1.66C0 0.97 0.56 0.41 1.24 0.41L8.43 0.41C9.11 0.41 9.67 0.97 9.67 1.66ZM11.16 8.84L11.16 1.66C11.16 0.97 11.71 0.41 12.4 0.41L19.58 0.41C20.27 0.41 20.83 0.97 20.83 1.66L20.83 8.84C20.83 9.53 20.27 10.08 19.58 10.08L12.4 10.08C11.71 10.08 11.16 9.53 11.16 8.84ZM9.67 12.81L9.67 20C9.67 20.68 9.11 21.24 8.43 21.24L1.24 21.24C0.56 21.24 0 20.68 0 20L0 12.81C0 12.13 0.56 11.57 1.24 11.57L8.43 11.57C9.11 11.57 9.67 12.13 9.67 12.81ZM21.2 16.41C21.2 16.82 20.86 17.15 20.45 17.15L16.74 17.15L16.74 20.87C16.74 21.28 16.4 21.61 15.99 21.61C15.58 21.61 15.25 21.28 15.25 20.87L15.25 17.15L11.53 17.15C11.12 17.15 10.78 16.82 10.78 16.41C10.78 16 11.12 15.66 11.53 15.66L15.25 15.66L15.25 11.94C15.25 11.53 15.58 11.2 15.99 11.2C16.4 11.2 16.74 11.53 16.74 11.94L16.74 15.66L20.45 15.66C20.86 15.66 21.2 16 21.2 16.41Z" />
			</g>
		</g>
	</g>
</svg>