<svg version="1.2" baseProfile="tiny-ps" xmlns="http://www.w3.org/2000/svg" viewBox="0 0 14 13" width="14" height="13">
	<title>About Product</title>
	<style>
		tspan { white-space:pre }
		.shp0 { fill: #1a1a1a } 
	</style>
	<g id="About Product">
		<g id="Header">
			<path id="Sandwich Menu" class="shp0" d="M1.18 0.74L13.21 0.74C13.69 0.74 14.07 1.12 14.07 1.6C14.07 2.07 13.69 2.46 13.21 2.46L1.18 2.46C0.71 2.46 0.32 2.07 0.32 1.6C0.32 1.12 0.71 0.74 1.18 0.74ZM1.18 5.9L13.21 5.9C13.69 5.9 14.07 6.28 14.07 6.75C14.07 7.23 13.69 7.61 13.21 7.61L1.18 7.61C0.71 7.61 0.32 7.23 0.32 6.75C0.32 6.28 0.71 5.9 1.18 5.9ZM1.18 11.05L13.21 11.05C13.69 11.05 14.07 11.44 14.07 11.91C14.07 12.39 13.69 12.77 13.21 12.77L1.18 12.77C0.71 12.77 0.32 12.39 0.32 11.91C0.32 11.44 0.71 11.05 1.18 11.05Z" />
		</g>
	</g>
</svg>