<svg version="1.2" baseProfile="tiny-ps" xmlns="http://www.w3.org/2000/svg" viewBox="0 0 44 16" width="44" height="16">
	<title>Intro</title>
	<style>
		tspan { white-space:pre }
		.shp0 { fill: #ffffff } 
	</style>
	<g id="Intro">
		<g id="Header">
			<path id="Logo" class="shp0" d="M3.91 3.57C3.54 3.95 3.08 4.14 2.53 4.14C1.98 4.14 1.52 3.95 1.15 3.57C0.77 3.2 0.58 2.73 0.58 2.18C0.58 1.63 0.77 1.16 1.15 0.79C1.52 0.41 1.98 0.22 2.53 0.22C3.08 0.22 3.54 0.41 3.91 0.79C4.29 1.16 4.48 1.63 4.48 2.18C4.48 2.73 4.29 3.2 3.91 3.57ZM4.21 15.67L4.21 4.8L0.87 4.8L0.87 15.67L4.21 15.67ZM12.09 12.92C11.47 12.92 10.92 12.69 10.44 12.23C9.96 11.77 9.72 11.11 9.72 10.25C9.72 9.4 9.96 8.73 10.44 8.27C10.92 7.8 11.47 7.57 12.09 7.57C12.72 7.57 13.27 7.8 13.75 8.26C14.23 8.72 14.47 9.38 14.47 10.23C14.47 11.09 14.23 11.75 13.75 12.22C13.27 12.69 12.72 12.92 12.09 12.92ZM11.24 15.81C12.59 15.81 13.67 15.23 14.47 14.09L14.47 15.67L17.8 15.67L17.8 1.25L14.47 1.25L14.47 6.22C13.73 5.2 12.67 4.68 11.29 4.68C9.9 4.68 8.73 5.21 7.77 6.25C6.81 7.3 6.33 8.63 6.33 10.25C6.33 11.88 6.81 13.21 7.77 14.25C8.73 15.29 9.89 15.81 11.24 15.81ZM25.34 15.81C23.76 15.81 22.46 15.3 21.44 14.28C20.43 13.26 19.93 11.9 19.93 10.21C19.93 8.53 20.43 7.18 21.43 6.18C22.44 5.18 23.74 4.68 25.34 4.68C26.94 4.68 28.26 5.18 29.31 6.16C30.37 7.15 30.89 8.52 30.89 10.27C30.89 10.65 30.87 11 30.81 11.33L23.33 11.33C23.4 11.81 23.61 12.2 23.98 12.5C24.34 12.81 24.73 12.96 25.16 12.96C25.58 12.96 25.89 12.92 26.1 12.83C26.31 12.75 26.46 12.67 26.56 12.58C26.66 12.5 26.78 12.36 26.94 12.16L30.54 12.16C30.23 13.25 29.61 14.13 28.67 14.8C27.74 15.47 26.63 15.81 25.34 15.81ZM27.42 9.24L23.35 9.24C23.44 8.73 23.67 8.32 24.04 8C24.4 7.69 24.85 7.53 25.38 7.53C25.91 7.53 26.37 7.69 26.76 8C27.15 8.32 27.37 8.73 27.42 9.24L27.42 9.24ZM38 12.92C37.38 12.92 36.83 12.69 36.35 12.23C35.87 11.77 35.63 11.11 35.63 10.25C35.63 9.4 35.87 8.73 36.35 8.27C36.83 7.8 37.38 7.57 38 7.57C38.62 7.57 39.18 7.8 39.66 8.26C40.14 8.72 40.38 9.38 40.38 10.23C40.38 11.09 40.14 11.75 39.66 12.22C39.18 12.69 38.62 12.92 38 12.92ZM37.14 15.81C38.49 15.81 39.57 15.23 40.38 14.09L40.38 15.67L43.71 15.67L43.71 4.8L40.38 4.8L40.38 6.22C39.64 5.2 38.58 4.68 37.19 4.68C35.81 4.68 34.64 5.21 33.68 6.25C32.72 7.3 32.24 8.63 32.24 10.25C32.24 11.88 32.72 13.21 33.68 14.25C34.64 15.29 35.79 15.81 37.14 15.81Z" />
		</g>
	</g>
</svg>