<svg version="1.2" baseProfile="tiny-ps" xmlns="http://www.w3.org/2000/svg" viewBox="0 0 14 13" width="14" height="13">
	<title>Intro</title>
	<style>
		tspan { white-space:pre }
		.shp0 { fill: #ffffff } 
	</style>
	<g id="Intro">
		<g id="Header">
			<path id="Sandwich Menu" class="shp0" d="M0.9 0.64L12.93 0.64C13.41 0.64 13.79 1.02 13.79 1.5C13.79 1.97 13.41 2.36 12.93 2.36L0.9 2.36C0.43 2.36 0.04 1.97 0.04 1.5C0.04 1.02 0.43 0.64 0.9 0.64ZM0.9 5.79L12.93 5.79C13.41 5.79 13.79 6.18 13.79 6.65C13.79 7.13 13.41 7.51 12.93 7.51L0.9 7.51C0.43 7.51 0.04 7.13 0.04 6.65C0.04 6.18 0.43 5.79 0.9 5.79ZM0.9 10.95L12.93 10.95C13.41 10.95 13.79 11.33 13.79 11.81C13.79 12.28 13.41 12.67 12.93 12.67L0.9 12.67C0.43 12.67 0.04 12.28 0.04 11.81C0.04 11.33 0.43 10.95 0.9 10.95Z" />
		</g>
	</g>
</svg>