<svg version="1.2" baseProfile="tiny-ps" xmlns="http://www.w3.org/2000/svg" viewBox="0 0 27 28" width="27" height="28">
	<title>Application Properties</title>
	<style>
		tspan { white-space:pre }
		.shp0 { fill: #ffffff } 
	</style>
	<g id="Application Properties">
		<g id="Content">
			<g id="Features">
				<path id="Settings copy" class="shp0" d="M14.38 2.59L13.5 2.59L13.5 1.27C13.5 1.03 13.69 0.83 13.94 0.83C14.18 0.83 14.38 1.03 14.38 1.27L14.38 2.59ZM14.38 2.6C15.09 2.63 15.79 2.72 16.47 2.87L16.81 1.59C16.87 1.36 17.11 1.22 17.35 1.28C17.58 1.34 17.72 1.58 17.66 1.82L17.32 3.1C17.99 3.31 18.64 3.58 19.26 3.91L19.93 2.76C20.05 2.55 20.32 2.47 20.53 2.6C20.74 2.72 20.81 2.99 20.69 3.2L20.02 4.35C20.62 4.73 21.18 5.16 21.69 5.63L22.63 4.69C22.81 4.52 23.08 4.52 23.25 4.69C23.43 4.86 23.43 5.14 23.25 5.31L22.31 6.25C22.79 6.77 23.22 7.33 23.6 7.92L24.75 7.26C24.96 7.14 25.23 7.21 25.35 7.42C25.47 7.63 25.4 7.9 25.19 8.02L24.04 8.68C24.22 9.02 24.38 9.38 24.52 9.74L18.37 12.08C17.68 10.5 16.17 9.36 14.38 9.2L14.38 2.6ZM17.89 14.01C17.89 16.19 16.12 17.96 13.94 17.96C11.76 17.96 9.98 16.19 9.98 14.01C9.98 11.83 11.76 10.05 13.94 10.05C16.12 10.05 17.89 11.83 17.89 14.01ZM13.94 14.89C13.45 14.89 13.06 14.49 13.06 14.01C13.06 13.52 13.45 13.13 13.94 13.13C14.42 13.13 14.82 13.52 14.82 14.01C14.82 14.49 14.42 14.89 13.94 14.89ZM25.35 14.45C25.32 15.16 25.23 15.86 25.07 16.54L26.35 16.88C26.59 16.94 26.73 17.19 26.67 17.42C26.61 17.62 26.44 17.74 26.24 17.74C26.2 17.74 26.17 17.74 26.13 17.73L24.85 17.39C24.64 18.06 24.36 18.71 24.04 19.33L25.19 20C25.4 20.12 25.47 20.39 25.35 20.6C25.27 20.74 25.12 20.82 24.97 20.82C24.89 20.82 24.82 20.8 24.75 20.76L23.6 20.09C23.22 20.69 22.79 21.25 22.31 21.76L23.25 22.71C23.43 22.88 23.43 23.15 23.25 23.33C23.17 23.41 23.06 23.46 22.94 23.46C22.83 23.46 22.72 23.41 22.63 23.33L21.69 22.38C21.47 22.59 21.23 22.78 20.99 22.97L17.12 17.64C18.13 16.75 18.77 15.45 18.77 14.01C18.77 13.63 18.72 13.27 18.64 12.92L24.82 10.56C24.83 10.58 24.84 10.61 24.85 10.63L26.13 10.29C26.36 10.23 26.6 10.36 26.67 10.6C26.73 10.83 26.59 11.07 26.35 11.14L25.07 11.48C25.23 12.16 25.32 12.85 25.35 13.57L26.68 13.57C26.92 13.57 27.11 13.77 27.11 14.01C27.11 14.25 26.92 14.45 26.68 14.45L25.35 14.45ZM9.5 12.1L3.33 9.79C3.48 9.41 3.65 9.04 3.84 8.68L2.69 8.02C2.48 7.9 2.4 7.63 2.53 7.42C2.65 7.21 2.92 7.14 3.13 7.26L4.28 7.92C4.66 7.33 5.09 6.77 5.56 6.25L4.62 5.31C4.45 5.14 4.45 4.86 4.62 4.69C4.79 4.52 5.07 4.52 5.24 4.69L6.18 5.63C6.7 5.16 7.26 4.73 7.85 4.35L7.19 3.2C7.07 2.99 7.14 2.72 7.35 2.6C7.56 2.47 7.83 2.55 7.95 2.76L8.61 3.91C9.23 3.58 9.88 3.31 10.56 3.1L10.22 1.82C10.15 1.58 10.29 1.34 10.53 1.28C10.76 1.22 11 1.35 11.06 1.59L11.41 2.87C12.08 2.72 12.78 2.63 13.5 2.6L13.5 9.2C11.7 9.36 10.18 10.51 9.5 12.1ZM3.03 10.63C3.03 10.62 9.23 12.94 9.23 12.94C9.15 13.28 9.11 13.64 9.11 14.01C9.11 15.45 9.75 16.75 10.76 17.64L6.88 22.97C6.64 22.78 6.41 22.59 6.18 22.38L5.24 23.33C5.16 23.41 5.04 23.46 4.93 23.46C4.82 23.46 4.71 23.41 4.62 23.33C4.45 23.15 4.45 22.88 4.62 22.71L5.56 21.76C5.09 21.25 4.66 20.69 4.28 20.09L3.13 20.76C3.06 20.8 2.98 20.82 2.91 20.82C2.75 20.82 2.61 20.74 2.53 20.6C2.4 20.39 2.48 20.12 2.69 20L3.84 19.33C3.51 18.71 3.24 18.06 3.03 17.39L1.75 17.73C1.71 17.74 1.67 17.74 1.63 17.74C1.44 17.74 1.26 17.62 1.21 17.42C1.15 17.19 1.29 16.94 1.52 16.88L2.8 16.54C2.65 15.86 2.56 15.16 2.53 14.45L1.2 14.45C0.96 14.45 0.76 14.25 0.76 14.01C0.76 13.77 0.96 13.57 1.2 13.57L2.53 13.57C2.56 12.85 2.65 12.16 2.8 11.48L1.52 11.14C1.29 11.07 1.15 10.83 1.21 10.6C1.27 10.36 1.51 10.23 1.75 10.29L3.03 10.63ZM20.69 24.82C20.81 25.03 20.74 25.3 20.53 25.42C20.46 25.46 20.38 25.48 20.31 25.48C20.15 25.48 20.01 25.4 19.93 25.26L19.26 24.11C18.64 24.44 17.99 24.71 17.32 24.92L17.66 26.2C17.72 26.43 17.58 26.67 17.35 26.74C17.31 26.75 17.27 26.75 17.23 26.75C17.04 26.75 16.86 26.62 16.81 26.43L16.47 25.14C15.79 25.3 15.09 25.39 14.38 25.42L14.38 26.75C14.38 26.99 14.18 27.19 13.94 27.19C13.69 27.19 13.5 26.99 13.5 26.75L13.5 25.42C12.78 25.39 12.08 25.3 11.41 25.14L11.06 26.43C11.01 26.62 10.83 26.75 10.64 26.75C10.6 26.75 10.57 26.75 10.53 26.74C10.29 26.67 10.15 26.43 10.22 26.2L10.56 24.92C9.88 24.71 9.23 24.44 8.61 24.11L7.95 25.26C7.87 25.4 7.72 25.48 7.57 25.48C7.49 25.48 7.42 25.46 7.35 25.42C7.14 25.3 7.07 25.03 7.19 24.82L7.85 23.67C7.76 23.61 7.68 23.55 7.59 23.49L11.47 18.15C12.19 18.59 13.03 18.84 13.94 18.84C14.84 18.84 15.68 18.59 16.41 18.15L20.28 23.49C20.19 23.55 20.11 23.61 20.02 23.67L20.69 24.82Z" />
			</g>
		</g>
	</g>
</svg>