<svg version="1.2" baseProfile="tiny-ps" xmlns="http://www.w3.org/2000/svg" viewBox="0 0 23 24" width="23" height="24">
	<title>Application Properties</title>
	<style>
		tspan { white-space:pre }
		.shp0 { fill: #ffffff } 
	</style>
	<g id="Application Properties">
		<g id="Content">
			<g id="Features">
				<path id="ON / OFF Switch copy" class="shp0" d="M17.54 13.68C20.07 13.68 22.12 15.74 22.12 18.27C22.12 20.79 20.07 22.85 17.54 22.85L5.32 22.85C2.79 22.85 0.73 20.79 0.73 18.27C0.73 15.74 2.79 13.68 5.32 13.68L17.54 13.68M5.32 22.09C7.42 22.09 9.14 20.37 9.14 18.27C9.14 16.16 7.42 14.45 5.32 14.45C3.21 14.45 1.5 16.16 1.5 18.27C1.5 20.37 3.21 22.09 5.32 22.09M17.54 12.92L5.32 12.92C2.37 12.92 -0.03 15.32 -0.03 18.27C-0.03 21.21 2.37 23.61 5.32 23.61L17.54 23.61C20.49 23.61 22.89 21.21 22.89 18.27C22.89 15.32 20.49 12.92 17.54 12.92L17.54 12.92ZM5.32 21.32C3.63 21.32 2.26 19.95 2.26 18.27C2.26 16.58 3.63 15.21 5.32 15.21C7 15.21 8.37 16.58 8.37 18.27C8.37 19.95 7 21.32 5.32 21.32L5.32 21.32ZM-0.03 6.04C-0.03 3.09 2.37 0.69 5.32 0.69L17.54 0.69C20.49 0.69 22.89 3.09 22.89 6.04C22.89 8.99 20.49 11.39 17.54 11.39L5.32 11.39C2.37 11.39 -0.03 8.99 -0.03 6.04ZM17.54 2.22C19.64 2.22 21.36 3.94 21.36 6.04C21.36 8.15 19.64 9.86 17.54 9.86C15.43 9.86 13.72 8.15 13.72 6.04C13.72 3.94 15.43 2.22 17.54 2.22Z" />
			</g>
		</g>
	</g>
</svg>